<?xml version="1.0" encoding="UTF-8" standalone="no"?>
<svg width="254px" height="235px" viewBox="0 0 254 235" version="1.1" xmlns="http://www.w3.org/2000/svg" xmlns:xlink="http://www.w3.org/1999/xlink" xmlns:sketch="http://www.bohemiancoding.com/sketch/ns">
    <!-- Generator: Sketch 3.3.3 (12072) - http://www.bohemiancoding.com/sketch -->
    <title>12205453431749550671AJ_simple_television Copy 6</title>
    <desc>Created with Sketch.</desc>
    <defs>
        <linearGradient x1="50%" y1="0%" x2="50%" y2="100%" id="linearGradient-1">
            <stop stop-color="#F5515F" offset="0%"></stop>
            <stop stop-color="#BC0823" offset="100%"></stop>
        </linearGradient>
    </defs>
    <g id="Page-1" stroke="none" stroke-width="1" fill="none" fill-rule="evenodd" sketch:type="MSPage">
        <g id="12205453431749550671AJ_simple_television-Copy-6" sketch:type="MSLayerGroup" transform="translate(0.186101, -1.250000)" fill="url(#linearGradient-1)">
            <g id="g2397" transform="translate(0.319205, 0.598075)" sketch:type="MSShapeGroup">
                <path d="M73.4529137,192.63655 L78.0414795,234.607269 L84.425571,234.607269 L88.9941865,192.63655 L73.4529137,192.63655 L73.4529137,192.63655 Z M96.0964884,192.63655 L97.1937541,202.750935 L103.577846,202.750935 L104.675111,192.63655 L96.0964884,192.63655 L96.0964884,192.63655 Z M155.388738,193.273676 L156.446104,202.830576 L162.830195,202.830576 L163.88756,193.273676 L155.388738,193.273676 L155.388738,193.273676 Z M170.989862,193.273676 L175.598378,235.6426 L181.98247,235.6426 L186.610936,193.273676 L170.989862,193.273676 L170.989862,193.273676 Z" id="path1840"></path>
                <path d="M58.6040914,190.090209 C87.1799817,215.827012 158.640284,228.748193 201.81887,190.090209 C244.997455,151.432225 278.029225,46.4982228 227.355236,20.7750518 C176.681247,-4.94811931 127.019438,58.0690595 127.019438,58.0690595 C127.019438,58.0690595 76.7889488,-20.603798 21.8604275,6.33609317 C-33.0680938,33.2759844 30.0282012,164.353406 58.6040914,190.090209 L58.6040914,190.090209 Z M61.5032888,88.6643443 C61.6984251,84.5239314 65.1492126,81.9113764 69.2031964,82.7973944 C69.2031964,82.7973944 104.877352,91.1736139 125.1053,91.1736139 C145.493806,91.1736139 187.297355,79.7885099 187.297355,79.7885099 C191.318336,78.7415061 195.128201,81.2144088 195.713111,85.3244166 C195.713111,85.3244166 203.035244,123.128435 191.224771,147.26423 C179.414299,171.400025 80.2521867,174.079335 69.4721,147.26423 C58.6920133,120.449125 61.5032888,88.6643443 61.5032888,88.6643443 L61.5032888,88.6643443 Z" id="path1063"></path>
            </g>
        </g>
    </g>
</svg>